inDegrees=no
num_controls=7
num_derivatives=13
num_iterations=112
num_multipliers=7
num_parameters=0
num_slacks=7
num_states=26
objective=4.189267
objective_accelerations=0.297418
objective_balance=0.079803
objective_effort=0.295176
objective_height=3.434844
objective_ligament=0.082026
solver_duration=1215.249949
status=Solve_Succeeded
success=true
DataType=double
version=3
OpenSimVersion=4.4-2022-07-23-0e9fedc
endheader
time	/jointset/ground_pelvis/pelvis_tilt/value	/jointset/ground_pelvis/pelvis_tx/value	/jointset/ground_pelvis/pelvis_ty/value	/jointset/hip_l/hip_flexion_l/value	/jointset/hip_l/hip_adduction_l/value	/jointset/hip_l/hip_rotation_l/value	/jointset/back/lumbar_extension/value	/jointset/patellofemoral_l/patellar_flexion_l/value	/jointset/knee_l/knee_flexion_l/value	/jointset/knee_l/knee_adduction_l/value	/jointset/knee_l/knee_rotation_l/value	/jointset/ankle_l/ankle_angle_l/value	/jointset/subtalar_l/subtalar_angle_l/value	/jointset/ground_pelvis/pelvis_tilt/speed	/jointset/ground_pelvis/pelvis_tx/speed	/jointset/ground_pelvis/pelvis_ty/speed	/jointset/hip_l/hip_flexion_l/speed	/jointset/hip_l/hip_adduction_l/speed	/jointset/hip_l/hip_rotation_l/speed	/jointset/back/lumbar_extension/speed	/jointset/patellofemoral_l/patellar_flexion_l/speed	/jointset/knee_l/knee_flexion_l/speed	/jointset/knee_l/knee_adduction_l/speed	/jointset/knee_l/knee_rotation_l/speed	/jointset/ankle_l/ankle_angle_l/speed	/jointset/subtalar_l/subtalar_angle_l/speed	/forceset/tau_hip_flexion_l	/forceset/tau_hip_adduction_l	/forceset/tau_hip_rotation_l	/forceset/tau_knee_flexion_l	/forceset/tau_ankle_angle_l	/forceset/tau_subtalar_angle_l	/forceset/tau_lumbar_extension	lambda_cid13_p0	lambda_cid13_p1	lambda_cid13_p2	lambda_cid13_p3	lambda_cid13_p4	lambda_cid13_p5	lambda_cid14_p0	/jointset/ground_pelvis/pelvis_tilt/accel	/jointset/ground_pelvis/pelvis_tx/accel	/jointset/ground_pelvis/pelvis_ty/accel	/jointset/hip_l/hip_flexion_l/accel	/jointset/hip_l/hip_adduction_l/accel	/jointset/hip_l/hip_rotation_l/accel	/jointset/back/lumbar_extension/accel	/jointset/patellofemoral_l/patellar_flexion_l/accel	/jointset/knee_l/knee_flexion_l/accel	/jointset/knee_l/knee_adduction_l/accel	/jointset/knee_l/knee_rotation_l/accel	/jointset/ankle_l/ankle_angle_l/accel	/jointset/subtalar_l/subtalar_angle_l/accel	gamma_cid13_p0	gamma_cid13_p1	gamma_cid13_p2	gamma_cid13_p3	gamma_cid13_p4	gamma_cid13_p5	gamma_cid14_p0
0.5	-0.2490668926425836	0.02542627261243955	0.8182022974197589	0.8869415586993545	-0.303871711251519	-0.05350892916142705	-0.2873287115866135	0.6489516352429002	0.6489516352426816	-0.170010218040485	0.1745076528296518	0.1850029036192274	-0.01133832626258463	-0.2158417463779462	-0.06848082365740052	-0.3107865728766102	1.391088947907499	-0.03227152033527487	0.5971263845283962	-0.6339213364737174	1.683748303455618	1.683748303455778	-0.01130043783844811	0.0001922704774761593	0.6164328486724417	0.07561036557485873	-0.1338688254385536	0.03140009343409902	-0.02555458650270835	-0.2299994251642733	0.03904048841070648	0.04010811397597863	0.1490282722193663	-25.690624649352	-17.31776934811777	7.381004543161795	5.83723708789493	-610.1468204458959	-61.84202176166168	-30.57485801710798	0.2089165461874716	0.2029009016493233	-0.3027666031184087	-0.7933989298038588	0.483595054716979	-0.3567843440565685	1.033779744914016	-0.9930836278190996	-0.9930836278194158	-0.06271284707699408	-0.02264899201697808	-0.4054555407964271	0.4703123697111568	-1.852496108364922e-07	-1.035567488229055e-06	1.017776692092786e-06	-1.183333227885583e-08	-1.884970074547645e-07	-8.611976751369606e-07	-2.124258044928048e-07
0.51	-0.2512145010596071	0.0247517200550944	0.8150799040169653	0.9008104660644952	-0.3041712247203739	-0.04755617302043157	-0.2936155595788692	0.6657368776404816	0.6657368776402874	-0.1701279967566994	0.1745090982202231	0.191145754300363	-0.01055990800228761	-0.2136601263964506	-0.06642211729251679	-0.3136287826443528	1.382506568743681	-0.02764352978249918	0.5933222261024346	-0.623367128610991	1.67307306318738	1.673073063187363	-0.01222462464977671	0.0001131950798158208	0.6120511098893371	0.08006013839377862	-0.138360361440242	0.03264685267863933	-0.02567216806577571	-0.2317941361939344	0.03548946420061663	0.04067024507077162	0.1529802902411682	-26.92967922988518	-17.2727220635065	7.291316610109022	6.272643660800535	-612.6816981291463	-61.49065500284377	-29.64285219063943	0.2257332902580832	0.2084943109902339	-0.2654915901818675	-0.9185780263059252	0.4504521063758473	-0.4078394264806249	1.07841131199942	-1.13876544153413	-1.138765441560403	-0.1027420236940113	0.001703752513628693	-0.4674765855668406	0.4303519942247036	-2.298124146206244e-07	-8.884853776504129e-07	1.220198204179515e-06	3.251514713733424e-08	-2.227610178273472e-07	-8.529699693991507e-07	-2.328271640353806e-07
0.52	-0.2533397035636012	0.02409798232281484	0.8119309798311778	0.9145879655146671	-0.3044248480735254	-0.04164458003065827	-0.2997944314914874	0.6824085633923481	0.6824085633921574	-0.1702541114261115	0.1745102009700577	0.1972421988859578	-0.009737383562552441	-0.211360563769805	-0.06431785864428272	-0.3160927294753448	1.372807364914492	-0.02309349719695531	0.5888937542918653	-0.6123261205463607	1.661036974310815	1.661036974310623	-0.01296762848243939	0.0001237423283214177	0.6071516295662512	0.08443160146239127	-0.1428518974419546	0.03389361192301236	-0.02578974962858075	-0.2335888472236994	0.03193843999044496	0.04123237616535519	0.1569323082630114	-28.17533590200221	-17.22926508738239	7.205020338016534	6.705558609769679	-615.3336933131069	-61.20219484479226	-28.69525338540626	0.2325050752176563	0.2120113583193232	-0.227114015768305	-1.016763862878086	0.468003461270684	-0.4816470209779773	1.131139785294872	-1.26525334948467	-1.265253349484496	-0.0264762513437642	-0.004724462783904745	-0.5090038487927671	0.4546504196497348	-2.551095057876262e-07	-7.609264953205514e-07	1.336738231525832e-06	6.558538286950303e-08	-2.467023951187393e-07	-8.192031645122554e-07	-2.414081458460039e-07
0.53	-0.2554413045757706	0.02346549906380496	0.8087593540323826	0.9282628593587681	-0.3046334999098066	-0.03577955819242285	-0.3058605961212556	0.6989529879009481	0.6989529879007695	-0.1703873522804981	0.1745112808087069	0.2032870485943898	-0.008871722625842801	-0.2089413230854927	-0.06217261502825874	-0.3181658074835232	1.361989091827308	-0.01865811453240846	0.5840306996857193	-0.6008337846942746	1.647624629546519	1.647624629546481	-0.01366938460674582	9.644272604503199e-05	0.6017351613954348	0.08867663351868701	-0.1472052827067007	0.03486164806849707	-0.02589666509577761	-0.2355462562554216	0.02863843659474289	0.04174005648895594	0.1607771846660241	-29.34279488621449	-17.17622509412707	7.117621213458999	7.099618388981167	-617.9940838559426	-60.94526255878899	-27.7358210161797	0.2493541579447296	0.2167241736689293	-0.1874631288414653	-1.141738389712614	0.4279600743437702	-0.5008440230532821	1.169233592224452	-1.412670536275816	-1.412670536252407	-0.09037657432631581	-0.00135911173444419	-0.5704534132234403	0.405783404466928	-2.556587419177565e-07	-6.600655049150762e-07	1.337117266538225e-06	7.997466723952722e-08	-2.481465723270699e-07	-7.603150269294016e-07	-2.34729405552734e-07
0.54	-0.257518169062526	0.02285465690304071	0.8055689857664056	0.9418240946003639	-0.3047984670383739	-0.02996560876883026	-0.3118096467710942	0.7153565998626258	0.715356599862465	-0.1705272809523605	0.1745121623708281	0.2092752365986989	-0.00796434060740051	-0.2064132586848506	-0.05998963899515633	-0.319841222911748	1.350075644417203	-0.01435655565590229	0.578679271374722	-0.5889033245598252	1.632874464927269	1.632874464927387	-0.0143051919851617	8.408701236532751e-05	0.5958192887447169	0.09277581780887709	-0.1515586679716105	0.03582968421371811	-0.02600358056211861	-0.237503665287365	0.02533843319892312	0.04224773681222227	0.1646220610689735	-30.51438759316583	-17.12579719781906	7.034450170454431	7.481237294029699	-620.7361646970247	-60.75253302294867	-26.77321241668152	0.254269818483806	0.2195578417349703	-0.1475814997775911	-1.235798727462273	0.4412387036626553	-0.5793217619481489	1.218764641767595	-1.532817320475283	-1.532817320475223	-0.01328650216562613	-0.00173568506464461	-0.6088847447731235	0.4254808664286236	-2.288273724751778e-07	-5.887426077025396e-07	1.208977756840742e-06	7.369566499611461e-08	-2.247002302945662e-07	-6.736330744488915e-07	-2.11167568463667e-07
